<mxfile host="Electron" modified="2024-06-11T03:33:32.910Z" agent="Mozilla/5.0 (Windows NT 10.0; Win64; x64) AppleWebKit/537.36 (KHTML, like Gecko) draw.io/24.2.5 Chrome/120.0.6099.109 Electron/28.1.0 Safari/537.36" etag="YV3lVt6Qi5jsJoG-rf_j" version="24.2.5" type="device">
  <diagram name="第 1 页" id="6Wd74rNul5bwMRRarrPw">
    <mxGraphModel dx="1290" dy="629" grid="1" gridSize="10" guides="1" tooltips="1" connect="1" arrows="1" fold="1" page="1" pageScale="1" pageWidth="1654" pageHeight="2336" math="0" shadow="0">
      <root>
        <mxCell id="0" />
        <mxCell id="1" parent="0" />
        <mxCell id="O_BsCqysHc0j4t5HEYVK-5" value="&lt;h1 style=&quot;margin-top: 0px;&quot;&gt;技术栈&lt;/h1&gt;&lt;div&gt;JDK8&lt;/div&gt;&lt;div&gt;SpringBoot 2.5.5&lt;/div&gt;&lt;div&gt;&lt;br&gt;&lt;/div&gt;" style="text;html=1;whiteSpace=wrap;overflow=hidden;rounded=0;" vertex="1" parent="1">
          <mxGeometry x="170" y="120" width="170" height="120" as="geometry" />
        </mxCell>
      </root>
    </mxGraphModel>
  </diagram>
</mxfile>
